<?xml version="1.0" encoding="UTF-8" standalone="no"?>
<!-- Created with Inkscape (http://www.inkscape.org/) -->

<svg
   xmlns:dc="http://purl.org/dc/elements/1.1/"
   xmlns:cc="http://creativecommons.org/ns#"
   xmlns:rdf="http://www.w3.org/1999/02/22-rdf-syntax-ns#"
   xmlns:svg="http://www.w3.org/2000/svg"
   xmlns="http://www.w3.org/2000/svg"
   xmlns:sodipodi="http://sodipodi.sourceforge.net/DTD/sodipodi-0.dtd"
   xmlns:inkscape="http://www.inkscape.org/namespaces/inkscape"
   id="svg5434"
   version="1.1"
   inkscape:version="0.48.3.1 r9886"
   width="959.99985"
   height="475.99983"
   xml:space="preserve"
   sodipodi:docname="1.pdf"><metadata
     id="metadata5440"><rdf:RDF><cc:Work
         rdf:about=""><dc:format>image/svg+xml</dc:format><dc:type
           rdf:resource="http://purl.org/dc/dcmitype/StillImage" /><dc:title></dc:title></cc:Work></rdf:RDF></metadata><defs
     id="defs5438" /><sodipodi:namedview
     pagecolor="#ffffff"
     bordercolor="#666666"
     borderopacity="1"
     objecttolerance="10"
     gridtolerance="10"
     guidetolerance="10"
     inkscape:pageopacity="0"
     inkscape:pageshadow="2"
     inkscape:window-width="884"
     inkscape:window-height="483"
     id="namedview5436"
     showgrid="false"
     inkscape:zoom="0.35312504"
     inkscape:cx="-18.407077"
     inkscape:cy="237.99991"
     inkscape:window-x="142"
     inkscape:window-y="288"
     inkscape:window-maximized="0"
     inkscape:current-layer="g5442" /><g
     id="g5442"
     inkscape:groupmode="layer"
     inkscape:label="red-car"
     transform="matrix(1.25,0,0,-1.25,0,475.99983)"><path
       inkscape:connector-curvature="0"
       id="path5446"
       style="fill:#000000;fill-opacity:0.99607801;fill-rule:nonzero;stroke:none"
       d="m 446.07,375.198 c -1.207,-0.004 -3.777,-0.242 -5.175,-0.75 l -2.801,-1.199 6.926,-28.75 -99.848,-0.223 c -1.949,-0.003 -3.91,0.008 -5.875,0.024 -3.93,0.027 -7.891,0.082 -11.875,0.176 -5.836,0.132 -11.734,0.328 -17.649,0.574 -0.32,0.012 -0.636,0.035 -0.953,0.051 -11.945,0.504 -24.004,1.191 -36.023,1.949 -16.262,1.027 -32.414,2.164 -48.098,3.101 -11.625,0.692 -22.988,1.262 -33.902,1.598 -7.496,0.231 -14.77,0.367 -21.797,0.324 -3.453,-0.019 -6.855,-0.074 -10.176,-0.172 -3.32,-0.101 -6.703,-0.285 -10.125,-0.527 -1.711,-0.121 -3.422,-0.246 -5.152,-0.398 -5.172,-0.457 -10.434,-1.059 -15.672,-1.75 l -0.027,0 c -3.496,-0.465 -6.973,-0.981 -10.45,-1.528 -3.476,-0.543 -6.937,-1.117 -10.347,-1.722 -3.406,-0.606 -6.778,-1.254 -10.078,-1.903 -0.008,0 -0.016,0.004 -0.024,0 -1.652,-0.324 -3.258,-0.64 -4.875,-0.972 -4.847,-0.996 -9.547,-2.016 -14,-3.028 -0.008,0 -0.015,0.004 -0.023,0 -2.977,-0.675 -5.832,-1.34 -8.578,-2 -5.489,-1.316 -10.493,-2.586 -14.825,-3.722 -6.496,-1.707 -11.503,-3.145 -14.472,-4 -1.981,-0.575 -3.051,-0.903 -3.051,-0.903 l -10.949,-3 c -0.723,-0.199 -1.422,-0.554 -2.102,-1.047 -0.23,-0.171 -0.449,-0.351 -0.676,-0.55 -0.878,-0.786 -1.718,-1.817 -2.523,-3.075 -0.004,-0.007 0.004,-0.019 0,-0.027 -0.398,-0.629 -0.816,-1.312 -1.199,-2.051 -0.004,-0.004 0.004,-0.015 0,-0.023 -0.383,-0.738 -0.762,-1.531 -1.125,-2.375 -0.004,-0.008 0.004,-0.02 0,-0.024 -2.934,-6.808 -5.297,-16.906 -7.153,-28.976 0,-0.008 0.004,-0.016 0,-0.024 -0.027,-0.187 -0.043,-0.386 -0.074,-0.578 -0.402,-2.664 -0.793,-5.437 -1.148,-8.273 -0.024,-0.195 -0.051,-0.379 -0.074,-0.574 C 9.699,275.616 9.344,272.288 9,268.874 l 0,-0.023 c -0.172,-1.703 -0.344,-3.438 -0.5,-5.176 l 0,-0.024 c -0.156,-1.742 -0.309,-3.48 -0.449,-5.25 l 0,-0.027 c -0.285,-3.551 -0.543,-7.156 -0.778,-10.801 0,-0.008 0.004,-0.015 0,-0.023 C 6.578,236.605 6.105,225.319 5.852,214.3 l 0,-0.024 c -0.172,-7.351 -0.25,-14.57 -0.25,-21.527 0,-0.773 0.019,-1.57 0.023,-2.348 -0.004,-0.781 -0.023,-1.578 -0.023,-2.351 0,-6.953 0.078,-14.172 0.25,-21.524 l 0,-0.027 c 0.253,-11.019 0.726,-22.301 1.421,-33.25 0.004,-0.008 0,-0.016 0,-0.023 0.235,-3.645 0.493,-7.25 0.778,-10.801 l 0,-0.024 c 0.14,-1.773 0.293,-3.511 0.449,-5.25 l 0,-0.027 c 0.156,-1.738 0.328,-3.473 0.5,-5.176 l 0,-0.023 c 0.344,-3.414 0.699,-6.742 1.102,-9.977 0.023,-0.191 0.05,-0.379 0.074,-0.574 0.355,-2.836 0.746,-5.609 1.148,-8.273 0.028,-0.188 0.047,-0.387 0.074,-0.575 0.004,-0.007 0,-0.019 0,-0.027 1.856,-12.07 4.219,-22.168 7.153,-28.973 0.004,-0.007 -0.004,-0.019 0,-0.027 0.363,-0.844 0.742,-1.637 1.125,-2.375 0.004,-0.004 -0.004,-0.016 0,-0.023 0.383,-0.739 0.797,-1.422 1.199,-2.051 0.004,-0.004 -0.004,-0.02 0,-0.024 0.805,-1.257 1.645,-2.293 2.523,-3.078 0.227,-0.199 0.446,-0.379 0.676,-0.547 0.68,-0.496 1.379,-0.851 2.102,-1.05 l 10.949,-3 c 0,0 1.07,-0.328 3.051,-0.903 2.969,-0.855 7.976,-2.293 14.472,-4 4.332,-1.136 9.336,-2.406 14.825,-3.722 2.746,-0.661 5.601,-1.325 8.578,-2 0.008,-0.004 0.015,0 0.023,0 4.453,-1.012 9.153,-2.032 14,-3.028 1.617,-0.328 3.223,-0.648 4.875,-0.972 0.008,-0.004 0.016,0 0.024,0 3.3,-0.649 6.672,-1.297 10.074,-1.903 3.414,-0.605 6.875,-1.179 10.351,-1.722 3.477,-0.547 6.954,-1.063 10.45,-1.528 0.007,0 0.019,0.004 0.027,0 5.238,-0.691 10.5,-1.293 15.672,-1.75 1.73,-0.148 3.441,-0.277 5.152,-0.398 3.418,-0.242 6.805,-0.426 10.125,-0.524 3.321,-0.101 6.723,-0.156 10.176,-0.175 7.027,-0.039 14.301,0.093 21.797,0.324 10.914,0.336 22.277,0.906 33.902,1.601 15.684,0.934 31.836,2.075 48.098,3.098 12.019,0.758 24.078,1.445 36.023,1.949 0.317,0.016 0.633,0.039 0.953,0.051 5.915,0.246 11.813,0.441 17.649,0.574 3.984,0.094 7.945,0.149 11.875,0.176 1.965,0.016 3.926,0.031 5.875,0.027 L 445.02,36.3 438.094,7.55 440.895,6.351 c 1.398,-0.508 3.968,-0.743 5.175,-0.75 0.68,-0.004 1.403,0.058 2.149,0.199 0.25,0.047 0.5,0.113 0.75,0.176 0.246,0.058 0.508,0.125 0.75,0.199 0.504,0.156 1.011,0.336 1.5,0.551 1.457,0.632 2.828,1.543 3.828,2.648 0.008,0.008 0.015,0.016 0.023,0.027 0.5,0.559 0.891,1.161 1.176,1.825 l 9.723,25.05 87.949,-0.203 c 0.598,-0.297 1.184,-0.593 1.777,-0.875 2.383,-1.117 4.727,-2.074 7.075,-2.898 1.168,-0.41 2.332,-0.781 3.5,-1.125 4.078,-1.207 8.148,-2.039 12.273,-2.602 2.359,-0.316 4.742,-0.554 7.152,-0.722 1.203,-0.086 2.426,-0.145 3.649,-0.2 2.445,-0.113 4.91,-0.171 7.449,-0.203 5.078,-0.058 10.383,0 16,0 8.328,0 16.258,0.426 23.824,1.25 3.028,0.332 5.992,0.719 8.903,1.176 5.812,0.914 11.382,2.098 16.722,3.5 1.336,0.352 2.668,0.719 3.977,1.102 3.918,1.14 7.687,2.418 11.347,3.824 1.223,0.469 2.434,0.93 3.625,1.426 2.383,0.992 4.707,2.047 6.977,3.148 1.133,0.555 2.27,1.121 3.375,1.699 2.211,1.16 4.371,2.387 6.473,3.653 1.05,0.632 2.078,1.289 3.101,1.949 5.117,3.297 9.891,6.902 14.324,10.824 3.543,3.137 6.883,6.465 10,9.977 0.004,0.004 -0.003,0.019 0,0.023 0.778,0.875 1.551,1.754 2.301,2.652 0.004,0.004 -0.004,0.02 0,0.024 0.75,0.898 1.5,1.805 2.227,2.726 0.004,0.004 -0.004,0.02 0,0.024 2.179,2.765 4.25,5.617 6.199,8.574 0.004,0.008 -0.004,0.02 0,0.027 0.644,0.981 1.301,1.969 1.926,2.973 0.004,0.008 -0.004,0.02 0,0.027 1.871,3.02 3.652,6.122 5.297,9.325 0.004,0.004 0,0.019 0,0.023 0.547,1.063 1.078,2.145 1.601,3.227 0.004,0.004 -0.004,0.015 0,0.023 0.52,1.082 1.051,2.176 1.551,3.277 0.004,0.004 -0.004,0.016 0,0.024 0.996,2.211 1.949,4.441 2.848,6.726 0.004,0.004 -0.004,0.016 0,0.024 0.449,1.137 0.879,2.293 1.3,3.449 0.004,0.008 -0.003,0.02 0,0.027 0.426,1.157 0.852,2.325 1.25,3.5 0.399,1.172 0.801,2.36 1.176,3.547 0.004,0.008 -0.004,0.02 0,0.028 0.375,1.191 0.746,2.39 1.098,3.597 0.004,0.008 0,0.02 0,0.028 0.355,1.207 0.699,2.425 1.027,3.648 0.004,0.008 -0.004,0.02 0,0.027 0.988,3.688 1.895,7.442 2.676,11.274 l 0,0.023 c 0.258,1.274 0.488,2.567 0.723,3.852 l 0,0.023 c 1.66,9.055 2.769,18.45 3.324,28.176 0.004,0.008 0,0.016 0,0.027 0.082,1.379 0.144,2.778 0.203,4.172 l 0,0.028 c 0.113,2.797 0.195,5.605 0.223,8.449 l 0,0.023 c 0.015,1.426 0.007,2.864 0,4.301 0,0.508 -0.016,1.016 -0.024,1.524 0.008,0.511 0.024,1.019 0.024,1.527 0.007,1.437 0.015,2.875 0,4.301 l 0,0.023 c -0.028,2.844 -0.11,5.652 -0.223,8.449 l 0,0.028 c -0.059,1.394 -0.121,2.793 -0.203,4.172 0,0.011 0.004,0.019 0,0.027 -0.555,9.726 -1.664,19.121 -3.324,28.176 l 0,0.023 c -0.235,1.285 -0.465,2.578 -0.723,3.852 l 0,0.023 c -0.781,3.832 -1.688,7.586 -2.676,11.274 -0.004,0.007 0.004,0.019 0,0.027 -0.328,1.223 -0.672,2.441 -1.027,3.648 0,0.008 0.004,0.02 0,0.028 -0.352,1.207 -0.723,2.406 -1.098,3.597 -0.004,0.008 0.004,0.02 0,0.028 -0.375,1.187 -0.777,2.375 -1.176,3.547 -0.398,1.175 -0.824,2.343 -1.25,3.5 -0.003,0.007 0.004,0.019 0,0.027 -0.421,1.156 -0.851,2.312 -1.3,3.449 -0.004,0.008 0.004,0.02 0,0.024 -0.899,2.285 -1.852,4.515 -2.848,6.726 -0.004,0.008 0.004,0.02 0,0.024 -0.5,1.101 -1.031,2.195 -1.551,3.277 -0.004,0.004 0.004,0.019 0,0.023 -0.523,1.082 -1.054,2.164 -1.601,3.227 0,0.004 0.004,0.019 0,0.023 -1.645,3.203 -3.426,6.305 -5.297,9.325 -0.004,0.007 0.004,0.019 0,0.027 -0.625,1.004 -1.282,1.992 -1.926,2.973 -0.004,0.007 0.004,0.019 0,0.027 -1.949,2.957 -4.02,5.808 -6.199,8.574 -0.004,0.004 0.004,0.02 0,0.024 -0.727,0.921 -1.477,1.828 -2.227,2.726 -0.004,0.004 0.004,0.02 0,0.024 -0.75,0.898 -1.523,1.777 -2.301,2.652 -0.003,0.004 0.004,0.019 0,0.023 -3.117,3.512 -6.457,6.84 -10,9.977 -4.433,3.922 -9.207,7.527 -14.324,10.824 -1.023,0.66 -2.051,1.316 -3.101,1.949 -2.102,1.266 -4.262,2.492 -6.473,3.649 -1.105,0.582 -2.242,1.148 -3.375,1.703 -2.27,1.101 -4.594,2.156 -6.977,3.148 -1.191,0.496 -2.402,0.957 -3.625,1.426 -3.66,1.402 -7.429,2.68 -11.347,3.824 -1.309,0.383 -2.641,0.75 -3.977,1.102 -5.34,1.402 -10.91,2.586 -16.722,3.5 -2.911,0.457 -5.875,0.844 -8.903,1.172 -7.566,0.828 -15.496,1.254 -23.824,1.254 -5.617,0 -10.922,0.058 -16,0 -2.539,-0.032 -5.004,-0.09 -7.449,-0.2 -1.223,-0.058 -2.446,-0.117 -3.649,-0.203 -2.41,-0.168 -4.793,-0.402 -7.152,-0.722 -4.125,-0.559 -8.195,-1.395 -12.273,-2.602 -1.168,-0.344 -2.332,-0.715 -3.5,-1.125 -2.348,-0.82 -4.692,-1.781 -7.075,-2.898 -0.593,-0.282 -1.179,-0.578 -1.777,-0.875 l -87.949,-0.2 -9.723,25.047 c -0.285,0.664 -0.676,1.27 -1.176,1.828 -0.008,0.008 -0.015,0.016 -0.023,0.024 -1,1.105 -2.371,2.015 -3.828,2.648 -0.489,0.215 -0.996,0.399 -1.5,0.551 -0.242,0.074 -0.504,0.141 -0.75,0.199 -0.25,0.063 -0.5,0.129 -0.75,0.176 -0.746,0.141 -1.469,0.203 -2.149,0.199 z" /><path
       inkscape:connector-curvature="0"
       id="path5448"
       style="fill:none;stroke:#191919;stroke-width:11.19999981;stroke-linecap:butt;stroke-linejoin:miter;stroke-miterlimit:4;stroke-opacity:1;stroke-dasharray:none"
       d="m 446.07,375.198 c -1.207,-0.004 -3.777,-0.242 -5.175,-0.75 l -2.801,-1.199 6.926,-28.75 -99.848,-0.223 c -1.949,-0.003 -3.91,0.008 -5.875,0.024 -3.93,0.027 -7.891,0.082 -11.875,0.176 -5.836,0.132 -11.734,0.328 -17.649,0.574 -0.32,0.012 -0.636,0.035 -0.953,0.051 -11.945,0.504 -24.004,1.191 -36.023,1.949 -16.262,1.027 -32.414,2.164 -48.098,3.101 -11.625,0.692 -22.988,1.262 -33.902,1.598 -7.496,0.231 -14.77,0.367 -21.797,0.324 -3.453,-0.019 -6.855,-0.074 -10.176,-0.172 -3.32,-0.101 -6.703,-0.285 -10.125,-0.527 -1.711,-0.121 -3.422,-0.246 -5.152,-0.398 -5.172,-0.457 -10.434,-1.059 -15.672,-1.75 l -0.027,0 c -3.496,-0.465 -6.973,-0.981 -10.45,-1.528 -3.476,-0.543 -6.937,-1.117 -10.347,-1.722 -3.406,-0.606 -6.778,-1.254 -10.078,-1.903 -0.008,0 -0.016,0.004 -0.024,0 -1.652,-0.324 -3.258,-0.64 -4.875,-0.972 -4.847,-0.996 -9.547,-2.016 -14,-3.028 -0.008,0 -0.015,0.004 -0.023,0 -2.977,-0.675 -5.832,-1.34 -8.578,-2 -5.489,-1.316 -10.493,-2.586 -14.825,-3.722 -6.496,-1.707 -11.503,-3.145 -14.472,-4 -1.981,-0.575 -3.051,-0.903 -3.051,-0.903 l -10.949,-3 c -0.723,-0.199 -1.422,-0.554 -2.102,-1.047 -0.23,-0.171 -0.449,-0.351 -0.676,-0.55 -0.878,-0.786 -1.718,-1.817 -2.523,-3.075 -0.004,-0.007 0.004,-0.019 0,-0.027 -0.398,-0.629 -0.816,-1.312 -1.199,-2.051 -0.004,-0.004 0.004,-0.015 0,-0.023 -0.383,-0.738 -0.762,-1.531 -1.125,-2.375 -0.004,-0.008 0.004,-0.02 0,-0.024 -2.934,-6.808 -5.297,-16.906 -7.153,-28.976 0,-0.008 0.004,-0.016 0,-0.024 -0.027,-0.187 -0.043,-0.386 -0.074,-0.578 -0.402,-2.664 -0.793,-5.437 -1.148,-8.273 -0.024,-0.195 -0.051,-0.379 -0.074,-0.574 C 9.699,275.616 9.344,272.288 9,268.874 l 0,-0.023 c -0.172,-1.703 -0.344,-3.438 -0.5,-5.176 l 0,-0.024 c -0.156,-1.742 -0.309,-3.48 -0.449,-5.25 l 0,-0.027 c -0.285,-3.551 -0.543,-7.156 -0.778,-10.801 0,-0.008 0.004,-0.015 0,-0.023 C 6.578,236.605 6.105,225.319 5.852,214.3 l 0,-0.024 c -0.172,-7.351 -0.25,-14.57 -0.25,-21.527 0,-0.773 0.019,-1.57 0.023,-2.348 -0.004,-0.781 -0.023,-1.578 -0.023,-2.351 0,-6.953 0.078,-14.172 0.25,-21.524 l 0,-0.027 c 0.253,-11.019 0.726,-22.301 1.421,-33.25 0.004,-0.008 0,-0.016 0,-0.023 0.235,-3.645 0.493,-7.25 0.778,-10.801 l 0,-0.024 c 0.14,-1.773 0.293,-3.511 0.449,-5.25 l 0,-0.027 c 0.156,-1.738 0.328,-3.473 0.5,-5.176 l 0,-0.023 c 0.344,-3.414 0.699,-6.742 1.102,-9.977 0.023,-0.191 0.05,-0.379 0.074,-0.574 0.355,-2.836 0.746,-5.609 1.148,-8.273 0.028,-0.188 0.047,-0.387 0.074,-0.575 0.004,-0.007 0,-0.019 0,-0.027 1.856,-12.07 4.219,-22.168 7.153,-28.973 0.004,-0.007 -0.004,-0.019 0,-0.027 0.363,-0.844 0.742,-1.637 1.125,-2.375 0.004,-0.004 -0.004,-0.016 0,-0.023 0.383,-0.739 0.797,-1.422 1.199,-2.051 0.004,-0.004 -0.004,-0.02 0,-0.024 0.805,-1.257 1.645,-2.293 2.523,-3.078 0.227,-0.199 0.446,-0.379 0.676,-0.547 0.68,-0.496 1.379,-0.851 2.102,-1.05 l 10.949,-3 c 0,0 1.07,-0.328 3.051,-0.903 2.969,-0.855 7.976,-2.293 14.472,-4 4.332,-1.136 9.336,-2.406 14.825,-3.722 2.746,-0.661 5.601,-1.325 8.578,-2 0.008,-0.004 0.015,0 0.023,0 4.453,-1.012 9.153,-2.032 14,-3.028 1.617,-0.328 3.223,-0.648 4.875,-0.972 0.008,-0.004 0.016,0 0.024,0 3.3,-0.649 6.672,-1.297 10.074,-1.903 3.414,-0.605 6.875,-1.179 10.351,-1.722 3.477,-0.547 6.954,-1.063 10.45,-1.528 0.007,0 0.019,0.004 0.027,0 5.238,-0.691 10.5,-1.293 15.672,-1.75 1.73,-0.148 3.441,-0.277 5.152,-0.398 3.418,-0.242 6.805,-0.426 10.125,-0.524 3.321,-0.101 6.723,-0.156 10.176,-0.175 7.027,-0.039 14.301,0.093 21.797,0.324 10.914,0.336 22.277,0.906 33.902,1.601 15.684,0.934 31.836,2.075 48.098,3.098 12.019,0.758 24.078,1.445 36.023,1.949 0.317,0.016 0.633,0.039 0.953,0.051 5.915,0.246 11.813,0.441 17.649,0.574 3.984,0.094 7.945,0.149 11.875,0.176 1.965,0.016 3.926,0.031 5.875,0.027 L 445.02,36.3 438.094,7.55 440.895,6.351 c 1.398,-0.508 3.968,-0.743 5.175,-0.75 0.68,-0.004 1.403,0.058 2.149,0.199 0.25,0.047 0.5,0.113 0.75,0.176 0.246,0.058 0.508,0.125 0.75,0.199 0.504,0.156 1.011,0.336 1.5,0.551 1.457,0.632 2.828,1.543 3.828,2.648 0.008,0.008 0.015,0.016 0.023,0.027 0.5,0.559 0.891,1.161 1.176,1.825 l 9.723,25.05 87.949,-0.203 c 0.598,-0.297 1.184,-0.593 1.777,-0.875 2.383,-1.117 4.727,-2.074 7.075,-2.898 1.168,-0.41 2.332,-0.781 3.5,-1.125 4.078,-1.207 8.148,-2.039 12.273,-2.602 2.359,-0.316 4.742,-0.554 7.152,-0.722 1.203,-0.086 2.426,-0.145 3.649,-0.2 2.445,-0.113 4.91,-0.171 7.449,-0.203 5.078,-0.058 10.383,0 16,0 8.328,0 16.258,0.426 23.824,1.25 3.028,0.332 5.992,0.719 8.903,1.176 5.812,0.914 11.382,2.098 16.722,3.5 1.336,0.352 2.668,0.719 3.977,1.102 3.918,1.14 7.687,2.418 11.347,3.824 1.223,0.469 2.434,0.93 3.625,1.426 2.383,0.992 4.707,2.047 6.977,3.148 1.133,0.555 2.27,1.121 3.375,1.699 2.211,1.16 4.371,2.387 6.473,3.653 1.05,0.632 2.078,1.289 3.101,1.949 5.117,3.297 9.891,6.902 14.324,10.824 3.543,3.137 6.883,6.465 10,9.977 0.004,0.004 -0.003,0.019 0,0.023 0.778,0.875 1.551,1.754 2.301,2.652 0.004,0.004 -0.004,0.02 0,0.024 0.75,0.898 1.5,1.805 2.227,2.726 0.004,0.004 -0.004,0.02 0,0.024 2.179,2.765 4.25,5.617 6.199,8.574 0.004,0.008 -0.004,0.02 0,0.027 0.644,0.981 1.301,1.969 1.926,2.973 0.004,0.008 -0.004,0.02 0,0.027 1.871,3.02 3.652,6.122 5.297,9.325 0.004,0.004 0,0.019 0,0.023 0.547,1.063 1.078,2.145 1.601,3.227 0.004,0.004 -0.004,0.015 0,0.023 0.52,1.082 1.051,2.176 1.551,3.277 0.004,0.004 -0.004,0.016 0,0.024 0.996,2.211 1.949,4.441 2.848,6.726 0.004,0.004 -0.004,0.016 0,0.024 0.449,1.137 0.879,2.293 1.3,3.449 0.004,0.008 -0.003,0.02 0,0.027 0.426,1.157 0.852,2.325 1.25,3.5 0.399,1.172 0.801,2.36 1.176,3.547 0.004,0.008 -0.004,0.02 0,0.028 0.375,1.191 0.746,2.39 1.098,3.597 0.004,0.008 0,0.02 0,0.028 0.355,1.207 0.699,2.425 1.027,3.648 0.004,0.008 -0.004,0.02 0,0.027 0.988,3.688 1.895,7.442 2.676,11.274 l 0,0.023 c 0.258,1.274 0.488,2.567 0.723,3.852 l 0,0.023 c 1.66,9.055 2.769,18.45 3.324,28.176 0.004,0.008 0,0.016 0,0.027 0.082,1.379 0.144,2.778 0.203,4.172 l 0,0.028 c 0.113,2.797 0.195,5.605 0.223,8.449 l 0,0.023 c 0.015,1.426 0.007,2.864 0,4.301 0,0.508 -0.016,1.016 -0.024,1.524 0.008,0.511 0.024,1.019 0.024,1.527 0.007,1.437 0.015,2.875 0,4.301 l 0,0.023 c -0.028,2.844 -0.11,5.652 -0.223,8.449 l 0,0.028 c -0.059,1.394 -0.121,2.793 -0.203,4.172 0,0.011 0.004,0.019 0,0.027 -0.555,9.726 -1.664,19.121 -3.324,28.176 l 0,0.023 c -0.235,1.285 -0.465,2.578 -0.723,3.852 l 0,0.023 c -0.781,3.832 -1.688,7.586 -2.676,11.274 -0.004,0.007 0.004,0.019 0,0.027 -0.328,1.223 -0.672,2.441 -1.027,3.648 0,0.008 0.004,0.02 0,0.028 -0.352,1.207 -0.723,2.406 -1.098,3.597 -0.004,0.008 0.004,0.02 0,0.028 -0.375,1.187 -0.777,2.375 -1.176,3.547 -0.398,1.175 -0.824,2.343 -1.25,3.5 -0.003,0.007 0.004,0.019 0,0.027 -0.421,1.156 -0.851,2.312 -1.3,3.449 -0.004,0.008 0.004,0.02 0,0.024 -0.899,2.285 -1.852,4.515 -2.848,6.726 -0.004,0.008 0.004,0.02 0,0.024 -0.5,1.101 -1.031,2.195 -1.551,3.277 -0.004,0.004 0.004,0.019 0,0.023 -0.523,1.082 -1.054,2.164 -1.601,3.227 0,0.004 0.004,0.019 0,0.023 -1.645,3.203 -3.426,6.305 -5.297,9.325 -0.004,0.007 0.004,0.019 0,0.027 -0.625,1.004 -1.282,1.992 -1.926,2.973 -0.004,0.007 0.004,0.019 0,0.027 -1.949,2.957 -4.02,5.808 -6.199,8.574 -0.004,0.004 0.004,0.02 0,0.024 -0.727,0.921 -1.477,1.828 -2.227,2.726 -0.004,0.004 0.004,0.02 0,0.024 -0.75,0.898 -1.523,1.777 -2.301,2.652 -0.003,0.004 0.004,0.019 0,0.023 -3.117,3.512 -6.457,6.84 -10,9.977 -4.433,3.922 -9.207,7.527 -14.324,10.824 -1.023,0.66 -2.051,1.316 -3.101,1.949 -2.102,1.266 -4.262,2.492 -6.473,3.649 -1.105,0.582 -2.242,1.148 -3.375,1.703 -2.27,1.101 -4.594,2.156 -6.977,3.148 -1.191,0.496 -2.402,0.957 -3.625,1.426 -3.66,1.402 -7.429,2.68 -11.347,3.824 -1.309,0.383 -2.641,0.75 -3.977,1.102 -5.34,1.402 -10.91,2.586 -16.722,3.5 -2.911,0.457 -5.875,0.844 -8.903,1.172 -7.566,0.828 -15.496,1.254 -23.824,1.254 -5.617,0 -10.922,0.058 -16,0 -2.539,-0.032 -5.004,-0.09 -7.449,-0.2 -1.223,-0.058 -2.446,-0.117 -3.649,-0.203 -2.41,-0.168 -4.793,-0.402 -7.152,-0.722 -4.125,-0.559 -8.195,-1.395 -12.273,-2.602 -1.168,-0.344 -2.332,-0.715 -3.5,-1.125 -2.348,-0.82 -4.692,-1.781 -7.075,-2.898 -0.593,-0.282 -1.179,-0.578 -1.777,-0.875 l -87.949,-0.2 -9.723,25.047 c -0.285,0.664 -0.676,1.27 -1.176,1.828 -0.008,0.008 -0.015,0.016 -0.023,0.024 -1,1.105 -2.371,2.015 -3.828,2.648 -0.489,0.215 -0.996,0.399 -1.5,0.551 -0.242,0.074 -0.504,0.141 -0.75,0.199 -0.25,0.063 -0.5,0.129 -0.75,0.176 -0.746,0.141 -1.469,0.203 -2.149,0.199 z" /><path
       inkscape:connector-curvature="0"
       id="path5450"
       style="fill:#00bfbf;fill-opacity:1;fill-rule:nonzero;stroke:none"
       d="m 446.07,375.198 c -1.207,-0.004 -3.777,-0.242 -5.175,-0.75 l -2.801,-1.199 6.926,-28.676 -99.848,-0.222 c -62.371,-0.133 -133.219,9.203 -186.348,7.597 C 105.695,350.347 37.125,329.55 37.125,329.55 L 26.176,326.526 C 10.773,322.288 5.602,248.632 5.602,193.101 c 0,-0.891 0.019,-1.805 0.023,-2.7 -0.004,-0.898 -0.023,-1.812 -0.023,-2.703 0,-55.531 5.171,-129.187 20.574,-133.422 l 10.949,-3.027 c 0,0 68.57,-20.797 121.699,-22.398 53.129,-1.606 123.977,7.73 186.348,7.597 L 445.02,36.226 438.094,7.55 440.895,6.351 c 1.398,-0.508 3.968,-0.743 5.175,-0.75 0.68,-0.004 1.403,0.058 2.149,0.199 0.25,0.047 0.5,0.113 0.75,0.176 0.246,0.058 0.508,0.125 0.75,0.199 0.504,0.152 1.011,0.336 1.5,0.551 1.457,0.632 2.828,1.519 3.828,2.625 0.008,0.007 0.015,0.015 0.023,0.023 0.5,0.559 0.891,1.164 1.176,1.824 l 9.723,25 87.949,-0.199 c 19.121,-9.555 36.41,-8.574 58.875,-8.574 106.598,0 150.102,69.269 149.598,161.101 0,0.622 -0.016,1.25 -0.024,1.875 0.008,0.622 0.024,1.25 0.024,1.875 0.504,91.829 -43,161.098 -149.598,161.098 -22.465,0 -39.754,0.981 -58.875,-8.574 l -87.949,-0.199 -9.723,25 c -0.285,0.66 -0.676,1.265 -1.176,1.824 l -0.023,0.023 c -1,1.106 -2.371,1.992 -3.828,2.625 -0.489,0.215 -0.996,0.399 -1.5,0.551 -0.242,0.074 -0.504,0.141 -0.75,0.199 -0.25,0.063 -0.5,0.129 -0.75,0.176 -0.746,0.141 -1.469,0.203 -2.149,0.199 z" /><path
       inkscape:connector-curvature="0"
       id="path5452"
       style="fill:#262626;fill-opacity:0.90196102;fill-rule:nonzero;stroke:none"
       d="m 277.922,86.054 c -26.692,0 -52.246,-1.446 -75.848,-4.063 20.524,-39.078 78.391,-24.273 164.446,-25.289 39.75,-0.472 71.632,-1.508 97.222,-1.906 -37.73,18.715 -106.82,31.258 -185.82,31.258 z" /><path
       inkscape:connector-curvature="0"
       id="path5454"
       style="fill:#000000;fill-opacity:0.5019609;fill-rule:nonzero;stroke:none"
       d="m 277.922,86.054 c -2.563,0 -5.106,-0.031 -7.652,-0.055 0.656,-12.969 5.148,-24.262 11.675,-31.156 3.739,0.062 7.594,0.156 11.547,0.273 -6.847,6.574 -11.672,17.832 -12.57,30.938 l -3,0 z" /><path
       inkscape:connector-curvature="0"
       id="path5456"
       style="fill:#212121;fill-opacity:1;fill-rule:nonzero;stroke:#191919;stroke-width:4.00505114;stroke-linecap:butt;stroke-linejoin:miter;stroke-miterlimit:4;stroke-opacity:1;stroke-dasharray:none"
       d="m 748.863,108.296 -4.078,-0.473 C 727.551,105.804 714.633,86.98 713.359,64.081 l -0.3,-5.711 4.199,3.879 c 12.715,11.777 22.644,26.074 29.926,42.316 l 1.679,3.731 z" /><path
       inkscape:connector-curvature="0"
       id="path5458"
       style="fill:none;stroke:#292929;stroke-width:4.80606079;stroke-linecap:round;stroke-linejoin:round;stroke-miterlimit:4;stroke-opacity:0.5019609;stroke-dasharray:none"
       d="m 584.426,99.48 c 0,0 63.738,18.117 84.297,25.64 21.472,7.86 79.086,31.403 79.086,31.403 0,0 -6.997,-34.071 -24.387,-46.458 C 661.645,66.062 537.277,66.874 537.277,66.874" /><path
       inkscape:connector-curvature="0"
       id="path5460"
       style="fill:#191919;fill-opacity:0.90196102;fill-rule:nonzero;stroke:none"
       d="m 277.922,88.038 c -26.762,0 -52.391,-1.426 -76.07,-4.055 l -2.93,-0.328 1.375,-2.605 c 5.34,-10.156 13.25,-16.934 23.25,-21.207 10,-4.262 22.058,-6.102 36.078,-6.766 28.031,-1.32 63.957,2.117 106.867,1.61 39.731,-0.469 71.61,-1.508 97.223,-1.911 l 0.902,3.813 C 426.336,75.577 357.133,88.038 277.922,88.038 z m 0,-4.012 c 72.937,0 137.39,-10.808 176.07,-27.035 -23.965,0.465 -52.168,1.289 -87.449,1.707 -43.148,0.504 -79.18,-2.929 -106.723,-1.633 -13.769,0.653 -25.41,2.493 -34.722,6.461 -8.364,3.579 -14.789,8.95 -19.598,16.77 22.648,2.391 46.984,3.73 72.422,3.73 z" /><path
       inkscape:connector-curvature="0"
       id="path5462"
       style="fill:#262626;fill-opacity:0.90196102;fill-rule:nonzero;stroke:none"
       d="m 277.922,295.444 c -26.692,0 -52.246,1.446 -75.848,4.063 20.524,39.074 78.391,24.281 164.446,25.289 39.75,0.473 71.632,1.508 97.222,1.91 -37.73,-18.715 -106.82,-31.262 -185.82,-31.262 z" /><path
       inkscape:connector-curvature="0"
       id="path5464"
       style="fill:#000000;fill-opacity:0.5019609;fill-rule:nonzero;stroke:none"
       d="m 277.922,295.444 c -2.563,0 -5.106,0.032 -7.652,0.051 0.656,12.977 5.148,24.27 11.675,31.156 3.739,-0.054 7.594,-0.156 11.547,-0.269 -6.847,-6.574 -11.672,-17.832 -12.57,-30.938 l -3,0 z" /><path
       inkscape:connector-curvature="0"
       id="path5466"
       style="fill:#212121;fill-opacity:1;fill-rule:nonzero;stroke:#191919;stroke-width:4.00505114;stroke-linecap:butt;stroke-linejoin:miter;stroke-miterlimit:4;stroke-opacity:1;stroke-dasharray:none"
       d="m 748.863,273.206 -4.078,0.469 c -17.234,2.019 -30.152,20.844 -31.426,43.742 l -0.3,5.711 4.199,-3.879 c 12.715,-11.781 22.644,-26.07 29.926,-42.309 l 1.679,-3.734 z" /><path
       inkscape:connector-curvature="0"
       id="path5468"
       style="fill:none;stroke:#292929;stroke-width:4.80606079;stroke-linecap:round;stroke-linejoin:round;stroke-miterlimit:4;stroke-opacity:0.5019609;stroke-dasharray:none"
       d="m 584.426,282.019 c 0,0 63.738,-18.114 84.297,-25.641 21.472,-7.867 79.086,-31.398 79.086,-31.398 0,0 -6.997,34.066 -24.387,46.449 -61.777,44.008 -186.145,43.195 -186.145,43.195" /><path
       inkscape:connector-curvature="0"
       id="path5470"
       style="fill:#191919;fill-opacity:0.90196102;fill-rule:nonzero;stroke:none"
       d="m 277.922,293.452 c -26.762,0 -52.391,1.434 -76.07,4.059 l -2.93,0.324 1.375,2.617 c 5.34,10.153 13.25,16.934 23.25,21.199 10,4.266 22.058,6.106 36.078,6.762 28.031,1.332 63.957,-2.109 106.867,-1.601 39.731,0.472 71.61,1.511 97.223,1.91 l 0.902,-3.817 C 426.336,305.921 357.133,293.452 277.922,293.452 z m 0,4.012 c 72.937,0 137.39,10.816 176.07,27.051 -23.965,-0.473 -52.168,-1.293 -87.449,-1.715 -43.148,-0.508 -79.18,2.933 -106.723,1.633 -13.769,-0.645 -25.41,-2.489 -34.722,-6.465 -8.364,-3.57 -14.789,-8.942 -19.598,-16.766 22.648,-2.394 46.984,-3.738 72.422,-3.738 z" /><g
       transform="matrix(1,0,0,-0.999989,0,380.79987)"
       id="g5472"><path
         inkscape:connector-curvature="0"
         id="path5474"
         style="fill:#262626;fill-opacity:1;fill-rule:nonzero;stroke:#191919;stroke-width:3.99998093;stroke-linecap:butt;stroke-linejoin:miter;stroke-miterlimit:4;stroke-opacity:1;stroke-dasharray:none"
         d="m 166.051,96.552 -62.199,9.976 c -21.723,3.485 -39.161,39.02 -40.801,83.876 1.64,44.852 19.078,80.388 40.801,83.872 l 62.199,9.977 c 10.637,0 19.195,-8.566 19.195,-19.203 l 0,-149.295 c 0,-10.641 -8.558,-19.203 -19.195,-19.203 z" /></g><g
       transform="matrix(1,0,0,-0.999985,0,380.79987)"
       id="g5476"><path
         inkscape:connector-curvature="0"
         id="path5478"
         style="fill:#262626;fill-opacity:1;fill-rule:nonzero;stroke:#191919;stroke-width:4;stroke-linecap:butt;stroke-linejoin:miter;stroke-miterlimit:4;stroke-opacity:1;stroke-dasharray:none"
         d="m 511.219,69.177 c -2.375,0 -4.715,0.265 -7.024,0.777 -0.007,-0.008 -0.015,-0.015 -0.023,-0.027 l -51.074,9.852 c -14.184,5.285 -25.602,11.418 -25.602,25.601 l 0,170.046 c 0,14.184 11.418,20.317 25.602,25.602 l 51.074,9.852 c 0.008,-0.008 0.016,-0.02 0.023,-0.028 2.309,0.512 4.649,0.778 7.024,0.778 36.316,0 65.758,-45.892 65.851,-121.229 C 576.977,115.068 547.535,69.177 511.219,69.177 z" /></g></g></svg>